<svg width="149" height="28" viewBox="0 0 149 28" fill="none" xmlns="http://www.w3.org/2000/svg">
<path fill-rule="evenodd" clip-rule="evenodd" d="M14.0274 23.8909C14.1166 23.8546 14.2025 23.8081 14.2833 23.7514C16.6311 22.1062 19.9261 21.3607 22.3786 21.0836C23.5924 20.9464 24.5834 19.9324 24.5834 18.6819V6.22828C24.5834 4.97775 23.5924 3.96417 22.3786 4.10133C19.9261 4.37846 16.6311 5.124 14.2833 6.76918C14.2025 6.82584 14.1166 6.87234 14.0274 6.9087V23.8909ZM13.0333 6.9106C12.9425 6.87397 12.855 6.82683 12.7728 6.76918C10.4249 5.124 7.12996 4.37846 4.67746 4.10133C3.46369 3.96417 2.47266 4.97775 2.47266 6.22828V18.6819C2.47266 19.9324 3.46369 20.9464 4.67746 21.0836C7.12996 21.3607 10.4249 22.1062 12.7728 23.7514C12.855 23.8091 12.9425 23.8562 13.0333 23.8928V6.9106ZM5.86469 9.40693L6.40668 9.4958C7.68685 9.72188 9.07426 10.068 10.3901 10.5769L10.4799 10.6218C10.6747 10.7467 10.7608 10.9952 10.6743 11.2194C10.5752 11.4755 10.2878 11.6034 10.0317 11.5046C8.78965 11.0243 7.46693 10.6939 6.23481 10.4763L5.71235 10.3894L5.61469 10.364C5.39793 10.2833 5.26053 10.0594 5.29731 9.82197C5.33415 9.58441 5.53298 9.41218 5.76411 9.40107L5.86469 9.40693ZM6.41254 13.9199L5.86469 13.8291L5.76411 13.8233C5.53298 13.8344 5.33415 14.0066 5.29731 14.2442C5.26053 14.4816 5.39793 14.7055 5.61469 14.7862L5.71235 14.8115L6.23969 14.8994C6.59528 14.9623 6.95866 15.0345 7.32563 15.1172L7.87836 15.249C8.14452 15.3159 8.41456 15.1548 8.48188 14.8887C8.54068 14.6556 8.42466 14.4188 8.21625 14.3184L8.12153 14.2842C7.54208 14.138 6.96742 14.0181 6.41254 13.9199Z" fill="white"/>
<path d="M38.3049 20.2803C37.5744 20.2803 36.8748 20.1657 36.2062 19.9367C35.5437 19.7076 34.9618 19.3764 34.4603 18.943C33.965 18.5096 33.6091 17.9958 33.3924 17.4014L35.7976 16.5099C35.8719 16.7204 36.0266 16.9185 36.2619 17.1043C36.4972 17.2838 36.7912 17.4324 37.1441 17.55C37.497 17.6615 37.884 17.7172 38.3049 17.7172C38.7074 17.7172 39.085 17.6584 39.4379 17.5407C39.797 17.4169 40.0849 17.2467 40.3015 17.03C40.5244 16.8133 40.6359 16.5595 40.6359 16.2685C40.6359 15.9775 40.5213 15.7361 40.2923 15.5441C40.0632 15.3522 39.7691 15.2005 39.41 15.0891C39.051 14.9715 38.6826 14.8817 38.3049 14.8198C37.3701 14.6836 36.5312 14.4638 35.7883 14.1605C35.0516 13.8509 34.4696 13.4268 34.0424 12.8882C33.6152 12.3434 33.4017 11.6531 33.4017 10.8173C33.4017 10.0125 33.6276 9.30979 34.0796 8.70926C34.5377 8.10874 35.1382 7.64132 35.8812 7.307C36.6303 6.97269 37.4382 6.80553 38.3049 6.80553C39.0231 6.80553 39.7165 6.92006 40.3851 7.14913C41.0537 7.3782 41.6357 7.70942 42.131 8.14279C42.6325 8.57616 42.9915 9.0962 43.2082 9.70292L40.803 10.5759C40.7287 10.3654 40.5739 10.1703 40.3387 9.9908C40.1034 9.81126 39.8094 9.66578 39.4565 9.55434C39.1036 9.4429 38.7197 9.38718 38.3049 9.38718C37.9087 9.38099 37.5311 9.4398 37.172 9.56362C36.8191 9.68744 36.5281 9.8577 36.2991 10.0744C36.0762 10.2911 35.9647 10.5387 35.9647 10.8173C35.9647 11.1826 36.07 11.4581 36.2805 11.6438C36.4972 11.8295 36.7819 11.9626 37.1348 12.0431C37.4877 12.1236 37.8778 12.1948 38.3049 12.2567C39.1841 12.3867 39.9951 12.6189 40.738 12.9532C41.4809 13.2813 42.0753 13.7209 42.521 14.2719C42.973 14.8167 43.1989 15.4822 43.1989 16.2685C43.1989 17.0733 42.973 17.776 42.521 18.3765C42.0691 18.9771 41.4716 19.4445 40.7287 19.7788C39.9858 20.1131 39.1779 20.2803 38.3049 20.2803ZM50.1894 13.3154H48.5178V20.0388H45.9548V13.3154H44.6732V10.7523H45.9548V7.83633H48.5178V10.7523H50.1894V13.3154ZM51.6278 16.64V10.7523H54.1909V15.9342C54.1909 16.2623 54.2683 16.5595 54.4231 16.8257C54.584 17.0857 54.7976 17.2931 55.0639 17.4479C55.3301 17.6027 55.621 17.68 55.9368 17.68C56.2587 17.68 56.5528 17.6027 56.819 17.4479C57.0852 17.2931 57.2957 17.0857 57.4505 16.8257C57.6053 16.5595 57.6827 16.2623 57.6827 15.9342V10.7523H60.2457L60.255 20.0388H57.6919L57.6827 19.333C57.3731 19.6302 57.0078 19.8624 56.5868 20.0295C56.172 20.1967 55.7325 20.2803 55.2682 20.2803C54.5995 20.2803 53.9897 20.1162 53.4387 19.7881C52.8877 19.46 52.4481 19.0235 52.12 18.4787C51.7919 17.9277 51.6278 17.3148 51.6278 16.64ZM68.897 6.10904H71.4601V20.0388H68.897V19.0544C68.6122 19.4135 68.2594 19.7076 67.8384 19.9367C67.4174 20.1657 66.9376 20.2803 66.399 20.2803C65.7241 20.2803 65.0927 20.1534 64.5045 19.8995C63.9164 19.6457 63.3963 19.2959 62.9444 18.8501C62.4986 18.3982 62.1488 17.8782 61.895 17.29C61.6412 16.7019 61.5143 16.0704 61.5143 15.3956C61.5143 14.7207 61.6412 14.0893 61.895 13.5011C62.1488 12.913 62.4986 12.396 62.9444 11.9503C63.3963 11.4983 63.9164 11.1454 64.5045 10.8916C65.0927 10.6378 65.7241 10.5108 66.399 10.5108C66.9376 10.5108 67.4174 10.6254 67.8384 10.8545C68.2594 11.0773 68.6122 11.3714 68.897 11.7367V6.10904ZM66.4361 17.8193C66.8571 17.8193 67.2378 17.711 67.5783 17.4943C67.9189 17.2776 68.1882 16.9866 68.3863 16.6214C68.5844 16.2499 68.6834 15.8413 68.6834 15.3956C68.6834 14.9436 68.5844 14.535 68.3863 14.1697C68.1882 13.8045 67.9189 13.5135 67.5783 13.2968C67.2378 13.0801 66.8571 12.9718 66.4361 12.9718C66.0089 12.9718 65.622 13.0801 65.2753 13.2968C64.9286 13.5135 64.6531 13.8076 64.4488 14.179C64.2445 14.5443 64.1423 14.9498 64.1423 15.3956C64.1423 15.8413 64.2445 16.2499 64.4488 16.6214C64.6593 16.9866 64.9379 17.2776 65.2846 17.4943C65.6313 17.711 66.0151 17.8193 66.4361 17.8193ZM77.7351 20.2803C76.8807 20.2803 76.1007 20.0605 75.3949 19.6209C74.6953 19.1814 74.135 18.5901 73.714 17.8472C73.2992 17.1043 73.0918 16.284 73.0918 15.3863C73.0918 14.7115 73.2125 14.08 73.454 13.4918C73.6954 12.8975 74.0267 12.3774 74.4477 11.9317C74.8748 11.4797 75.3701 11.1269 75.9335 10.873C76.4969 10.6192 77.0974 10.4923 77.7351 10.4923C78.4718 10.4923 79.1435 10.6501 79.7503 10.9659C80.3632 11.2816 80.8801 11.7119 81.3011 12.2567C81.7283 12.8015 82.0316 13.4175 82.2112 14.1047C82.3969 14.7919 82.4279 15.507 82.3041 16.2499H75.8592C75.9397 16.5223 76.0635 16.77 76.2307 16.9928C76.404 17.2095 76.6145 17.3829 76.8622 17.5129C77.116 17.6429 77.407 17.711 77.7351 17.7172C78.057 17.7234 78.3542 17.6491 78.6266 17.4943C78.899 17.3395 79.1312 17.1321 79.3231 16.8721L81.9419 17.4757C81.5642 18.2991 81.0008 18.974 80.2517 19.5002C79.5026 20.0202 78.6637 20.2803 77.7351 20.2803ZM75.7663 14.3555H79.7131C79.6326 14.0459 79.4964 13.7673 79.3045 13.5197C79.1126 13.272 78.8804 13.077 78.608 12.9346C78.3418 12.7922 78.0508 12.721 77.7351 12.721C77.4255 12.721 77.1346 12.7922 76.8622 12.9346C76.5959 13.077 76.3669 13.272 76.1749 13.5197C75.9892 13.7611 75.853 14.0397 75.7663 14.3555ZM92.5478 14.1326V20.0388H89.9848V14.8384C89.9848 14.5102 89.9043 14.2162 89.7433 13.9561C89.5885 13.6899 89.3781 13.4794 89.1118 13.3247C88.8518 13.1699 88.5608 13.0925 88.2389 13.0925C87.917 13.0925 87.6229 13.1699 87.3567 13.3247C87.0905 13.4794 86.88 13.6899 86.7252 13.9561C86.5704 14.2162 86.493 14.5102 86.493 14.8384V20.0388H83.93L83.9207 10.7523H86.4838L86.493 11.4395C86.8026 11.1423 87.1648 10.9102 87.5796 10.743C88.0005 10.5759 88.4432 10.4923 88.9075 10.4923C89.5824 10.4923 90.1922 10.6563 90.737 10.9845C91.288 11.3126 91.7275 11.7521 92.0557 12.3031C92.3838 12.848 92.5478 13.4578 92.5478 14.1326ZM99.5888 13.3154H97.9172V20.0388H95.3542V13.3154H94.0726V10.7523H95.3542V7.83633H97.9172V10.7523H99.5888V13.3154ZM105.745 7.03769H108.661L113.378 20.0388H110.657L109.877 17.8843H104.528L103.748 20.0388H101.027L105.745 7.03769ZM105.466 15.3213H108.939L107.194 10.5573L105.466 15.3213ZM121.271 6.10904H123.834V20.0388H121.271V19.0544C120.986 19.4135 120.633 19.7076 120.212 19.9367C119.791 20.1657 119.312 20.2803 118.773 20.2803C118.098 20.2803 117.467 20.1534 116.879 19.8995C116.29 19.6457 115.77 19.2959 115.318 18.8501C114.873 18.3982 114.523 17.8782 114.269 17.29C114.015 16.7019 113.888 16.0704 113.888 15.3956C113.888 14.7207 114.015 14.0893 114.269 13.5011C114.523 12.913 114.873 12.396 115.318 11.9503C115.77 11.4983 116.29 11.1454 116.879 10.8916C117.467 10.6378 118.098 10.5108 118.773 10.5108C119.312 10.5108 119.791 10.6254 120.212 10.8545C120.633 11.0773 120.986 11.3714 121.271 11.7367V6.10904ZM118.81 17.8193C119.231 17.8193 119.612 17.711 119.952 17.4943C120.293 17.2776 120.562 16.9866 120.76 16.6214C120.958 16.2499 121.057 15.8413 121.057 15.3956C121.057 14.9436 120.958 14.535 120.76 14.1697C120.562 13.8045 120.293 13.5135 119.952 13.2968C119.612 13.0801 119.231 12.9718 118.81 12.9718C118.383 12.9718 117.996 13.0801 117.649 13.2968C117.303 13.5135 117.027 13.8076 116.823 14.179C116.618 14.5443 116.516 14.9498 116.516 15.3956C116.516 15.8413 116.618 16.2499 116.823 16.6214C117.033 16.9866 117.312 17.2776 117.659 17.4943C118.005 17.711 118.389 17.8193 118.81 17.8193ZM132.849 6.10904H135.412V20.0388H132.849V19.0544C132.564 19.4135 132.211 19.7076 131.79 19.9367C131.369 20.1657 130.889 20.2803 130.351 20.2803C129.676 20.2803 129.044 20.1534 128.456 19.8995C127.868 19.6457 127.348 19.2959 126.896 18.8501C126.45 18.3982 126.1 17.8782 125.847 17.29C125.593 16.7019 125.466 16.0704 125.466 15.3956C125.466 14.7207 125.593 14.0893 125.847 13.5011C126.1 12.913 126.45 12.396 126.896 11.9503C127.348 11.4983 127.868 11.1454 128.456 10.8916C129.044 10.6378 129.676 10.5108 130.351 10.5108C130.889 10.5108 131.369 10.6254 131.79 10.8545C132.211 11.0773 132.564 11.3714 132.849 11.7367V6.10904ZM130.388 17.8193C130.809 17.8193 131.189 17.711 131.53 17.4943C131.87 17.2776 132.14 16.9866 132.338 16.6214C132.536 16.2499 132.635 15.8413 132.635 15.3956C132.635 14.9436 132.536 14.535 132.338 14.1697C132.14 13.8045 131.87 13.5135 131.53 13.2968C131.189 13.0801 130.809 12.9718 130.388 12.9718C129.96 12.9718 129.574 13.0801 129.227 13.2968C128.88 13.5135 128.605 13.8076 128.4 14.179C128.196 14.5443 128.094 14.9498 128.094 15.3956C128.094 15.8413 128.196 16.2499 128.4 16.6214C128.611 16.9866 128.889 17.2776 129.236 17.4943C129.583 17.711 129.967 17.8193 130.388 17.8193ZM144.417 10.7523H146.98V20.0388H144.408L144.287 19.073C144.045 19.4321 143.736 19.7231 143.358 19.946C142.981 20.1688 142.538 20.2803 142.03 20.2803C141.337 20.2803 140.69 20.1503 140.089 19.8902C139.489 19.6302 138.96 19.2711 138.501 18.813C138.043 18.3549 137.684 17.8255 137.424 17.225C137.17 16.6183 137.043 15.9682 137.043 15.2748C137.043 14.6124 137.164 13.9933 137.406 13.4175C137.647 12.8418 137.988 12.3341 138.427 11.8945C138.867 11.455 139.371 11.1114 139.941 10.8637C140.517 10.6161 141.136 10.4923 141.798 10.4923C142.368 10.4923 142.878 10.613 143.33 10.8545C143.789 11.0959 144.188 11.4024 144.528 11.7738L144.417 10.7523ZM141.965 17.8193C142.386 17.8193 142.767 17.711 143.107 17.4943C143.448 17.2776 143.717 16.9866 143.915 16.6214C144.114 16.2499 144.213 15.8413 144.213 15.3956C144.213 14.9436 144.114 14.535 143.915 14.1697C143.717 13.8045 143.448 13.5135 143.107 13.2968C142.767 13.0801 142.386 12.9718 141.965 12.9718C141.538 12.9718 141.151 13.0801 140.804 13.2968C140.458 13.5135 140.182 13.8076 139.978 14.179C139.774 14.5443 139.671 14.9498 139.671 15.3956C139.671 15.8413 139.774 16.2499 139.978 16.6214C140.188 16.9866 140.467 17.2776 140.814 17.4943C141.16 17.711 141.544 17.8193 141.965 17.8193Z" fill="white"/>
</svg>
