<svg width="159" height="30" viewBox="0 0 159 30" fill="none" xmlns="http://www.w3.org/2000/svg">
<path fill-rule="evenodd" clip-rule="evenodd" d="M14.7247 25.6807C14.8207 25.6417 14.9133 25.5917 15.0003 25.5307C17.512 23.7706 21.037 22.9731 23.6607 22.6766C24.9592 22.5298 26.0194 21.4451 26.0194 20.1073V6.78436C26.0194 5.44653 24.9592 4.36221 23.6607 4.50894C21.037 4.80541 17.512 5.603 15.0003 7.36302C14.9133 7.42402 14.8207 7.47403 14.7247 7.51303V25.6807ZM13.6603 7.51318C13.5641 7.47415 13.4715 7.4241 13.3843 7.36302C10.8726 5.603 7.34764 4.80541 4.72394 4.50894C3.42544 4.36221 2.36523 5.44653 2.36523 6.78436V20.1073C2.36523 21.4451 3.42544 22.5298 4.72394 22.6766C7.34764 22.9731 10.8726 23.7706 13.3843 25.5307C13.4715 25.5917 13.5641 25.6418 13.6603 25.6808V7.51318ZM10.8362 11.4357C11.1103 11.5418 11.2468 11.8501 11.1409 12.1242C11.0349 12.3983 10.7265 12.5347 10.4524 12.4289L10.8362 11.4357ZM6.57444 10.2805C7.94398 10.5223 9.42847 10.8914 10.8362 11.4357L10.6438 11.9318L10.4524 12.4289C9.12366 11.9151 7.70897 11.5612 6.39085 11.3283L5.83226 11.2365L5.72776 11.2092C5.49567 11.1232 5.34781 10.8832 5.38694 10.6291C5.4263 10.375 5.63976 10.1909 5.88694 10.1789L5.99437 10.1838L6.57444 10.2805ZM6.58128 15.0122L5.99437 14.9145L5.88694 14.9096C5.63976 14.9216 5.4263 15.1057 5.38694 15.3598C5.34781 15.6139 5.49567 15.8539 5.72776 15.9399L5.83226 15.9672L6.39573 16.06C6.77598 16.1273 7.16445 16.205 7.55687 16.2934L8.14866 16.434C8.43366 16.5059 8.72324 16.3333 8.79515 16.0483C8.8579 15.7989 8.73308 15.5462 8.50999 15.4389L8.4094 15.4028C7.78961 15.2464 7.17479 15.1171 6.58128 15.0122Z" fill="#435058"/>
<path d="M40.6535 21.898C39.872 21.898 39.1235 21.7754 38.4082 21.5304C37.6996 21.2853 37.077 20.931 36.5405 20.4673C36.0107 20.0037 35.6298 19.454 35.398 18.8182L37.9711 17.8644C38.0506 18.0896 38.2162 18.3016 38.4678 18.5003C38.7195 18.6923 39.0341 18.8513 39.4117 18.9771C39.7892 19.0964 40.2031 19.156 40.6535 19.156C41.084 19.156 41.488 19.093 41.8655 18.9672C42.2497 18.8347 42.5577 18.6526 42.7895 18.4208C43.0279 18.189 43.1471 17.9174 43.1471 17.6061C43.1471 17.2949 43.0246 17.0365 42.7795 16.8312C42.5345 16.6259 42.2199 16.4636 41.8357 16.3444C41.4516 16.2186 41.0575 16.1226 40.6535 16.0563C39.6534 15.9106 38.756 15.6755 37.9612 15.351C37.173 15.0198 36.5504 14.5661 36.0934 13.9899C35.6364 13.4071 35.4079 12.6686 35.4079 11.7744C35.4079 10.9134 35.6497 10.1617 36.1332 9.51925C36.6233 8.87681 37.2657 8.37676 38.0605 8.01911C38.8619 7.66146 39.7263 7.48263 40.6535 7.48263C41.4218 7.48263 42.1636 7.60516 42.8789 7.85022C43.5942 8.09527 44.2168 8.44961 44.7466 8.91323C45.2831 9.37686 45.6672 9.9332 45.899 10.5823L43.3259 11.5161C43.2465 11.291 43.0809 11.0823 42.8292 10.8902C42.5775 10.6982 42.2629 10.5425 41.8854 10.4233C41.5079 10.3041 41.0972 10.2445 40.6535 10.2445C40.2296 10.2379 39.8256 10.3008 39.4415 10.4333C39.0639 10.5657 38.7526 10.7479 38.5076 10.9797C38.2692 11.2115 38.1499 11.4764 38.1499 11.7744C38.1499 12.1652 38.2625 12.4599 38.4877 12.6586C38.7195 12.8573 39.0242 12.9997 39.4017 13.0858C39.7792 13.1719 40.1965 13.2481 40.6535 13.3143C41.594 13.4534 42.4616 13.7018 43.2564 14.0594C44.0512 14.4105 44.687 14.8807 45.1639 15.4702C45.6474 16.053 45.8891 16.765 45.8891 17.6061C45.8891 18.4672 45.6474 19.2189 45.1639 19.8613C44.6804 20.5038 44.0412 21.0038 43.2465 21.3615C42.4517 21.7191 41.5874 21.898 40.6535 21.898ZM53.3675 14.4469H51.5793V21.6396H48.8373V14.4469H47.4663V11.7049H48.8373V8.58539H51.5793V11.7049H53.3675V14.4469ZM54.9064 18.0035V11.7049H57.6484V17.2485C57.6484 17.5995 57.7312 17.9174 57.8967 18.2022C58.0689 18.4804 58.2974 18.7023 58.5822 18.8679C58.867 19.0334 59.1783 19.1162 59.5161 19.1162C59.8605 19.1162 60.1751 19.0334 60.4599 18.8679C60.7447 18.7023 60.9699 18.4804 61.1355 18.2022C61.301 17.9174 61.3838 17.5995 61.3838 17.2485V11.7049H64.1258L64.1358 21.6396H61.3938L61.3838 20.8846C61.0527 21.2025 60.6619 21.4509 60.2115 21.6297C59.7678 21.8085 59.2975 21.898 58.8008 21.898C58.0855 21.898 57.4331 21.7224 56.8437 21.3714C56.2542 21.0204 55.7839 20.5534 55.4329 19.9706C55.0819 19.3811 54.9064 18.7255 54.9064 18.0035ZM73.381 6.73752H76.123V21.6396H73.381V20.5866C73.0764 20.9707 72.6988 21.2853 72.2485 21.5304C71.7981 21.7754 71.2848 21.898 70.7086 21.898C69.9866 21.898 69.3111 21.7622 68.6819 21.4906C68.0527 21.2191 67.4963 20.8449 67.0128 20.368C66.536 19.8845 66.1618 19.3282 65.8902 18.699C65.6187 18.0698 65.4829 17.3942 65.4829 16.6723C65.4829 15.9503 65.6187 15.2748 65.8902 14.6456C66.1618 14.0164 66.536 13.4633 67.0128 12.9865C67.4963 12.503 68.0527 12.1255 68.6819 11.8539C69.3111 11.5824 69.9866 11.4466 70.7086 11.4466C71.2848 11.4466 71.7981 11.5691 72.2485 11.8142C72.6988 12.0526 73.0764 12.3672 73.381 12.758V6.73752ZM70.7483 19.2652C71.1987 19.2652 71.606 19.1493 71.9703 18.9175C72.3346 18.6857 72.6227 18.3744 72.8346 17.9837C73.0466 17.5863 73.1525 17.1491 73.1525 16.6723C73.1525 16.1888 73.0466 15.7517 72.8346 15.3609C72.6227 14.9701 72.3346 14.6588 71.9703 14.427C71.606 14.1952 71.1987 14.0793 70.7483 14.0793C70.2913 14.0793 69.8774 14.1952 69.5065 14.427C69.1356 14.6588 68.8408 14.9734 68.6223 15.3708C68.4037 15.7616 68.2944 16.1954 68.2944 16.6723C68.2944 17.1491 68.4037 17.5863 68.6223 17.9837C68.8475 18.3744 69.1455 18.6857 69.5164 18.9175C69.8873 19.1493 70.2979 19.2652 70.7483 19.2652ZM82.836 21.898C81.922 21.898 81.0875 21.6628 80.3324 21.1926C79.584 20.7223 78.9846 20.0898 78.5343 19.295C78.0905 18.5003 77.8686 17.6227 77.8686 16.6623C77.8686 15.9404 77.9978 15.2649 78.2561 14.6356C78.5144 13.9998 78.8687 13.4435 79.3191 12.9666C79.7761 12.4831 80.3059 12.1056 80.9087 11.8341C81.5114 11.5625 82.1538 11.4267 82.836 11.4267C83.6242 11.4267 84.3428 11.5956 84.9918 11.9334C85.6475 12.2712 86.2006 12.7315 86.6509 13.3143C87.1079 13.8972 87.4325 14.5562 87.6245 15.2913C87.8232 16.0265 87.8564 16.7915 87.7239 17.5863H80.8292C80.9153 17.8777 81.0477 18.1426 81.2266 18.3811C81.412 18.6129 81.6372 18.7983 81.9021 18.9374C82.1737 19.0765 82.485 19.1493 82.836 19.156C83.1804 19.1626 83.4983 19.0831 83.7897 18.9175C84.0812 18.7519 84.3295 18.5301 84.5348 18.2519L87.3364 18.8977C86.9324 19.7785 86.3297 20.5005 85.5283 21.0634C84.7269 21.6198 83.8295 21.898 82.836 21.898ZM80.7298 15.5596H84.9521C84.866 15.2284 84.7203 14.9304 84.515 14.6655C84.3097 14.4005 84.0613 14.1919 83.7699 14.0396C83.4851 13.8872 83.1738 13.8111 82.836 13.8111C82.5048 13.8111 82.1936 13.8872 81.9021 14.0396C81.6173 14.1919 81.3723 14.4005 81.167 14.6655C80.9683 14.9238 80.8226 15.2218 80.7298 15.5596ZM98.6827 15.3211V21.6396H95.9408V16.0762C95.9408 15.7252 95.8547 15.4106 95.6825 15.1324C95.5169 14.8476 95.2917 14.6224 95.0069 14.4568C94.7287 14.2912 94.4174 14.2085 94.073 14.2085C93.7286 14.2085 93.414 14.2912 93.1292 14.4568C92.8444 14.6224 92.6192 14.8476 92.4537 15.1324C92.2881 15.4106 92.2053 15.7252 92.2053 16.0762V21.6396H89.4633L89.4534 11.7049H92.1954L92.2053 12.4401C92.5364 12.1222 92.9239 11.8738 93.3677 11.695C93.818 11.5161 94.2916 11.4267 94.7883 11.4267C95.5102 11.4267 96.1626 11.6022 96.7455 11.9533C97.3349 12.3043 97.8052 12.7745 98.1562 13.364C98.5072 13.9468 98.6827 14.5992 98.6827 15.3211ZM106.215 14.4469H104.427V21.6396H101.685V14.4469H100.314V11.7049H101.685V8.58539H104.427V11.7049H106.215V14.4469ZM112.801 7.731H115.92L120.967 21.6396H118.056L117.222 19.3348H111.499L110.665 21.6396H107.754L112.801 7.731ZM112.503 16.5928H116.218L114.351 11.4963L112.503 16.5928ZM129.411 6.73752H132.153V21.6396H129.411V20.5866C129.106 20.9707 128.729 21.2853 128.278 21.5304C127.828 21.7754 127.315 21.898 126.738 21.898C126.017 21.898 125.341 21.7622 124.712 21.4906C124.083 21.2191 123.526 20.8449 123.043 20.368C122.566 19.8845 122.192 19.3282 121.92 18.699C121.649 18.0698 121.513 17.3942 121.513 16.6723C121.513 15.9503 121.649 15.2748 121.92 14.6456C122.192 14.0164 122.566 13.4633 123.043 12.9865C123.526 12.503 124.083 12.1255 124.712 11.8539C125.341 11.5824 126.017 11.4466 126.738 11.4466C127.315 11.4466 127.828 11.5691 128.278 11.8142C128.729 12.0526 129.106 12.3672 129.411 12.758V6.73752ZM126.778 19.2652C127.229 19.2652 127.636 19.1493 128 18.9175C128.364 18.6857 128.653 18.3744 128.864 17.9837C129.076 17.5863 129.182 17.1491 129.182 16.6723C129.182 16.1888 129.076 15.7517 128.864 15.3609C128.653 14.9701 128.364 14.6588 128 14.427C127.636 14.1952 127.229 14.0793 126.778 14.0793C126.321 14.0793 125.907 14.1952 125.536 14.427C125.165 14.6588 124.871 14.9734 124.652 15.3708C124.434 15.7616 124.324 16.1954 124.324 16.6723C124.324 17.1491 124.434 17.5863 124.652 17.9837C124.877 18.3744 125.175 18.6857 125.546 18.9175C125.917 19.1493 126.328 19.2652 126.778 19.2652ZM141.797 6.73752H144.539V21.6396H141.797V20.5866C141.492 20.9707 141.114 21.2853 140.664 21.5304C140.214 21.7754 139.7 21.898 139.124 21.898C138.402 21.898 137.727 21.7622 137.097 21.4906C136.468 21.2191 135.912 20.8449 135.428 20.368C134.952 19.8845 134.577 19.3282 134.306 18.699C134.034 18.0698 133.898 17.3942 133.898 16.6723C133.898 15.9503 134.034 15.2748 134.306 14.6456C134.577 14.0164 134.952 13.4633 135.428 12.9865C135.912 12.503 136.468 12.1255 137.097 11.8539C137.727 11.5824 138.402 11.4466 139.124 11.4466C139.7 11.4466 140.214 11.5691 140.664 11.8142C141.114 12.0526 141.492 12.3672 141.797 12.758V6.73752ZM139.164 19.2652C139.614 19.2652 140.022 19.1493 140.386 18.9175C140.75 18.6857 141.038 18.3744 141.25 17.9837C141.462 17.5863 141.568 17.1491 141.568 16.6723C141.568 16.1888 141.462 15.7517 141.25 15.3609C141.038 14.9701 140.75 14.6588 140.386 14.427C140.022 14.1952 139.614 14.0793 139.164 14.0793C138.707 14.0793 138.293 14.1952 137.922 14.427C137.551 14.6588 137.256 14.9734 137.038 15.3708C136.819 15.7616 136.71 16.1954 136.71 16.6723C136.71 17.1491 136.819 17.5863 137.038 17.9837C137.263 18.3744 137.561 18.6857 137.932 18.9175C138.303 19.1493 138.714 19.2652 139.164 19.2652ZM154.172 11.7049H156.914V21.6396H154.162L154.033 20.6064C153.775 20.9906 153.444 21.3019 153.04 21.5403C152.636 21.7787 152.162 21.898 151.619 21.898C150.877 21.898 150.185 21.7589 149.543 21.4807C148.9 21.2025 148.334 20.8184 147.844 20.3283C147.354 19.8381 146.97 19.2719 146.692 18.6294C146.42 17.9803 146.284 17.2849 146.284 16.5431C146.284 15.8344 146.413 15.1721 146.672 14.5562C146.93 13.9402 147.294 13.3971 147.765 12.9269C148.235 12.4566 148.775 12.089 149.384 11.8241C150 11.5592 150.662 11.4267 151.371 11.4267C151.98 11.4267 152.527 11.5559 153.01 11.8142C153.5 12.0725 153.927 12.4003 154.292 12.7977L154.172 11.7049ZM151.55 19.2652C152 19.2652 152.407 19.1493 152.772 18.9175C153.136 18.6857 153.424 18.3744 153.636 17.9837C153.848 17.5863 153.954 17.1491 153.954 16.6723C153.954 16.1888 153.848 15.7517 153.636 15.3609C153.424 14.9701 153.136 14.6588 152.772 14.427C152.407 14.1952 152 14.0793 151.55 14.0793C151.093 14.0793 150.679 14.1952 150.308 14.427C149.937 14.6588 149.642 14.9734 149.424 15.3708C149.205 15.7616 149.096 16.1954 149.096 16.6723C149.096 17.1491 149.205 17.5863 149.424 17.9837C149.649 18.3744 149.947 18.6857 150.318 18.9175C150.689 19.1493 151.099 19.2652 151.55 19.2652Z" fill="#435058"/>
</svg>
